<mxfile host="65bd71144e">
    <diagram id="9l6zcRZUpb1B83WxNm3P" name="Page-1">
        <mxGraphModel dx="711" dy="430" grid="1" gridSize="10" guides="1" tooltips="1" connect="1" arrows="1" fold="1" page="1" pageScale="1" pageWidth="827" pageHeight="1169" math="0" shadow="0">
            <root>
                <mxCell id="0"/>
                <mxCell id="1" parent="0"/>
                <mxCell id="2" value="Topic&lt;br&gt;&lt;br&gt;- JS&lt;br&gt;- GO&lt;br&gt;- SQL" style="whiteSpace=wrap;html=1;" parent="1" vertex="1">
                    <mxGeometry x="60" y="60" width="130" height="110" as="geometry"/>
                </mxCell>
                <mxCell id="3" value="Errors (Optional)&lt;br&gt;&lt;br&gt;- Error: X&lt;br&gt;- Error: Y&lt;br&gt;- Error: Z" style="whiteSpace=wrap;html=1;align=center;" parent="1" vertex="1">
                    <mxGeometry x="226" y="60" width="124" height="110" as="geometry"/>
                </mxCell>
                <mxCell id="4" value="" style="shape=singleArrow;whiteSpace=wrap;html=1;arrowWidth=0.4;arrowSize=0.4;rotation=0;direction=south;" parent="1" vertex="1">
                    <mxGeometry x="195.5" y="200" width="20" height="60" as="geometry"/>
                </mxCell>
                <mxCell id="9" value="&lt;u&gt;&lt;b&gt;Object &lt;/b&gt;&lt;/u&gt;1&lt;br&gt;&lt;br&gt;Tag: JS&lt;br&gt;Error: X&lt;br&gt;&lt;br&gt;Tittle: ..................&lt;br&gt;Description: ......&lt;br&gt;Code snipped: ..." style="whiteSpace=wrap;html=1;aspect=fixed;" parent="1" vertex="1">
                    <mxGeometry x="133" y="270" width="145" height="145" as="geometry"/>
                </mxCell>
                <mxCell id="12" value="" style="shape=curlyBracket;whiteSpace=wrap;html=1;rounded=1;" parent="1" vertex="1">
                    <mxGeometry x="140" y="350" width="20" height="60" as="geometry"/>
                </mxCell>
                <mxCell id="56" value="" style="shape=table;startSize=0;container=1;collapsible=0;childLayout=tableLayout;" parent="1" vertex="1">
                    <mxGeometry x="80" y="520" width="160" height="150" as="geometry"/>
                </mxCell>
                <mxCell id="57" value="" style="shape=partialRectangle;collapsible=0;dropTarget=0;pointerEvents=0;fillColor=none;top=0;left=0;bottom=0;right=0;points=[[0,0.5],[1,0.5]];portConstraint=eastwest;" parent="56" vertex="1">
                    <mxGeometry width="160" height="50" as="geometry"/>
                </mxCell>
                <mxCell id="58" value="Key" style="shape=partialRectangle;html=1;whiteSpace=wrap;connectable=0;overflow=hidden;fillColor=none;top=0;left=0;bottom=0;right=0;pointerEvents=1;" parent="57" vertex="1">
                    <mxGeometry width="80" height="50" as="geometry">
                        <mxRectangle width="80" height="50" as="alternateBounds"/>
                    </mxGeometry>
                </mxCell>
                <mxCell id="59" value="Topic (string)" style="shape=partialRectangle;html=1;whiteSpace=wrap;connectable=0;overflow=hidden;fillColor=none;top=0;left=0;bottom=0;right=0;pointerEvents=1;" parent="57" vertex="1">
                    <mxGeometry x="80" width="80" height="50" as="geometry">
                        <mxRectangle width="80" height="50" as="alternateBounds"/>
                    </mxGeometry>
                </mxCell>
                <mxCell id="60" value="" style="shape=partialRectangle;collapsible=0;dropTarget=0;pointerEvents=0;fillColor=none;top=0;left=0;bottom=0;right=0;points=[[0,0.5],[1,0.5]];portConstraint=eastwest;" parent="56" vertex="1">
                    <mxGeometry y="50" width="160" height="50" as="geometry"/>
                </mxCell>
                <mxCell id="61" value="1" style="shape=partialRectangle;html=1;whiteSpace=wrap;connectable=0;overflow=hidden;fillColor=none;top=0;left=0;bottom=0;right=0;pointerEvents=1;" parent="60" vertex="1">
                    <mxGeometry width="80" height="50" as="geometry">
                        <mxRectangle width="80" height="50" as="alternateBounds"/>
                    </mxGeometry>
                </mxCell>
                <mxCell id="62" value="Angular" style="shape=partialRectangle;html=1;whiteSpace=wrap;connectable=0;overflow=hidden;fillColor=none;top=0;left=0;bottom=0;right=0;pointerEvents=1;" parent="60" vertex="1">
                    <mxGeometry x="80" width="80" height="50" as="geometry">
                        <mxRectangle width="80" height="50" as="alternateBounds"/>
                    </mxGeometry>
                </mxCell>
                <mxCell id="63" value="" style="shape=partialRectangle;collapsible=0;dropTarget=0;pointerEvents=0;fillColor=none;top=0;left=0;bottom=0;right=0;points=[[0,0.5],[1,0.5]];portConstraint=eastwest;" parent="56" vertex="1">
                    <mxGeometry y="100" width="160" height="50" as="geometry"/>
                </mxCell>
                <mxCell id="64" value="2" style="shape=partialRectangle;html=1;whiteSpace=wrap;connectable=0;overflow=hidden;fillColor=none;top=0;left=0;bottom=0;right=0;pointerEvents=1;" parent="63" vertex="1">
                    <mxGeometry width="80" height="50" as="geometry">
                        <mxRectangle width="80" height="50" as="alternateBounds"/>
                    </mxGeometry>
                </mxCell>
                <mxCell id="65" value="SQL" style="shape=partialRectangle;html=1;whiteSpace=wrap;connectable=0;overflow=hidden;fillColor=none;top=0;left=0;bottom=0;right=0;pointerEvents=1;" parent="63" vertex="1">
                    <mxGeometry x="80" width="80" height="50" as="geometry">
                        <mxRectangle width="80" height="50" as="alternateBounds"/>
                    </mxGeometry>
                </mxCell>
                <mxCell id="66" value="" style="shape=table;startSize=0;container=1;collapsible=0;childLayout=tableLayout;fillColor=#60a917;fontColor=#ffffff;strokeColor=#2D7600;" parent="1" vertex="1">
                    <mxGeometry x="569" y="520" width="180" height="150" as="geometry"/>
                </mxCell>
                <mxCell id="67" value="" style="shape=partialRectangle;collapsible=0;dropTarget=0;pointerEvents=0;fillColor=none;top=0;left=0;bottom=0;right=0;points=[[0,0.5],[1,0.5]];portConstraint=eastwest;" parent="66" vertex="1">
                    <mxGeometry width="180" height="50" as="geometry"/>
                </mxCell>
                <mxCell id="68" value="Key" style="shape=partialRectangle;html=1;whiteSpace=wrap;connectable=0;overflow=hidden;fillColor=none;top=0;left=0;bottom=0;right=0;pointerEvents=1;" parent="67" vertex="1">
                    <mxGeometry width="87" height="50" as="geometry">
                        <mxRectangle width="87" height="50" as="alternateBounds"/>
                    </mxGeometry>
                </mxCell>
                <mxCell id="69" value="Error (String)" style="shape=partialRectangle;html=1;whiteSpace=wrap;connectable=0;overflow=hidden;fillColor=none;top=0;left=0;bottom=0;right=0;pointerEvents=1;" parent="67" vertex="1">
                    <mxGeometry x="87" width="93" height="50" as="geometry">
                        <mxRectangle width="93" height="50" as="alternateBounds"/>
                    </mxGeometry>
                </mxCell>
                <mxCell id="70" value="" style="shape=partialRectangle;collapsible=0;dropTarget=0;pointerEvents=0;fillColor=none;top=0;left=0;bottom=0;right=0;points=[[0,0.5],[1,0.5]];portConstraint=eastwest;" parent="66" vertex="1">
                    <mxGeometry y="50" width="180" height="50" as="geometry"/>
                </mxCell>
                <mxCell id="71" value="1" style="shape=partialRectangle;html=1;whiteSpace=wrap;connectable=0;overflow=hidden;fillColor=none;top=0;left=0;bottom=0;right=0;pointerEvents=1;" parent="70" vertex="1">
                    <mxGeometry width="87" height="50" as="geometry">
                        <mxRectangle width="87" height="50" as="alternateBounds"/>
                    </mxGeometry>
                </mxCell>
                <mxCell id="72" value="type Error" style="shape=partialRectangle;html=1;whiteSpace=wrap;connectable=0;overflow=hidden;fillColor=none;top=0;left=0;bottom=0;right=0;pointerEvents=1;" parent="70" vertex="1">
                    <mxGeometry x="87" width="93" height="50" as="geometry">
                        <mxRectangle width="93" height="50" as="alternateBounds"/>
                    </mxGeometry>
                </mxCell>
                <mxCell id="73" value="" style="shape=partialRectangle;collapsible=0;dropTarget=0;pointerEvents=0;fillColor=none;top=0;left=0;bottom=0;right=0;points=[[0,0.5],[1,0.5]];portConstraint=eastwest;" parent="66" vertex="1">
                    <mxGeometry y="100" width="180" height="50" as="geometry"/>
                </mxCell>
                <mxCell id="74" value="2" style="shape=partialRectangle;html=1;whiteSpace=wrap;connectable=0;overflow=hidden;fillColor=none;top=0;left=0;bottom=0;right=0;pointerEvents=1;" parent="73" vertex="1">
                    <mxGeometry width="87" height="50" as="geometry">
                        <mxRectangle width="87" height="50" as="alternateBounds"/>
                    </mxGeometry>
                </mxCell>
                <mxCell id="75" value="Post does not work" style="shape=partialRectangle;html=1;whiteSpace=wrap;connectable=0;overflow=hidden;fillColor=none;top=0;left=0;bottom=0;right=0;pointerEvents=1;" parent="73" vertex="1">
                    <mxGeometry x="87" width="93" height="50" as="geometry">
                        <mxRectangle width="93" height="50" as="alternateBounds"/>
                    </mxGeometry>
                </mxCell>
                <mxCell id="102" value="" style="shape=table;startSize=0;container=1;collapsible=0;childLayout=tableLayout;" parent="1" vertex="1">
                    <mxGeometry x="113" y="770" width="600" height="190" as="geometry"/>
                </mxCell>
                <mxCell id="103" value="" style="shape=partialRectangle;collapsible=0;dropTarget=0;pointerEvents=0;fillColor=none;top=0;left=0;bottom=0;right=0;points=[[0,0.5],[1,0.5]];portConstraint=eastwest;" parent="102" vertex="1">
                    <mxGeometry width="600" height="63" as="geometry"/>
                </mxCell>
                <mxCell id="104" value="Key" style="shape=partialRectangle;html=1;whiteSpace=wrap;connectable=0;overflow=hidden;fillColor=none;top=0;left=0;bottom=0;right=0;pointerEvents=1;" parent="103" vertex="1">
                    <mxGeometry width="100" height="63" as="geometry">
                        <mxRectangle width="100" height="63" as="alternateBounds"/>
                    </mxGeometry>
                </mxCell>
                <mxCell id="105" value="Title" style="shape=partialRectangle;html=1;whiteSpace=wrap;connectable=0;overflow=hidden;fillColor=none;top=0;left=0;bottom=0;right=0;pointerEvents=1;" parent="103" vertex="1">
                    <mxGeometry x="100" width="100" height="63" as="geometry">
                        <mxRectangle width="100" height="63" as="alternateBounds"/>
                    </mxGeometry>
                </mxCell>
                <mxCell id="106" value="Description" style="shape=partialRectangle;html=1;whiteSpace=wrap;connectable=0;overflow=hidden;fillColor=none;top=0;left=0;bottom=0;right=0;pointerEvents=1;" parent="103" vertex="1">
                    <mxGeometry x="200" width="100" height="63" as="geometry">
                        <mxRectangle width="100" height="63" as="alternateBounds"/>
                    </mxGeometry>
                </mxCell>
                <mxCell id="107" value="Code" style="shape=partialRectangle;html=1;whiteSpace=wrap;connectable=0;overflow=hidden;fillColor=none;top=0;left=0;bottom=0;right=0;pointerEvents=1;" parent="103" vertex="1">
                    <mxGeometry x="300" width="100" height="63" as="geometry">
                        <mxRectangle width="100" height="63" as="alternateBounds"/>
                    </mxGeometry>
                </mxCell>
                <mxCell id="108" value="Topic" style="shape=partialRectangle;html=1;whiteSpace=wrap;connectable=0;overflow=hidden;fillColor=#1ba1e2;top=0;left=0;bottom=0;right=0;pointerEvents=1;fontColor=#ffffff;strokeColor=#006EAF;" parent="103" vertex="1">
                    <mxGeometry x="400" width="117" height="63" as="geometry">
                        <mxRectangle width="117" height="63" as="alternateBounds"/>
                    </mxGeometry>
                </mxCell>
                <mxCell id="109" value="Error" style="shape=partialRectangle;html=1;whiteSpace=wrap;connectable=0;overflow=hidden;fillColor=#60a917;top=0;left=0;bottom=0;right=0;pointerEvents=1;fontColor=#ffffff;strokeColor=#2D7600;" parent="103" vertex="1">
                    <mxGeometry x="517" width="83" height="63" as="geometry">
                        <mxRectangle width="83" height="63" as="alternateBounds"/>
                    </mxGeometry>
                </mxCell>
                <mxCell id="110" value="" style="shape=partialRectangle;collapsible=0;dropTarget=0;pointerEvents=0;fillColor=none;top=0;left=0;bottom=0;right=0;points=[[0,0.5],[1,0.5]];portConstraint=eastwest;" parent="102" vertex="1">
                    <mxGeometry y="63" width="600" height="64" as="geometry"/>
                </mxCell>
                <mxCell id="111" value="1" style="shape=partialRectangle;html=1;whiteSpace=wrap;connectable=0;overflow=hidden;fillColor=none;top=0;left=0;bottom=0;right=0;pointerEvents=1;" parent="110" vertex="1">
                    <mxGeometry width="100" height="64" as="geometry">
                        <mxRectangle width="100" height="64" as="alternateBounds"/>
                    </mxGeometry>
                </mxCell>
                <mxCell id="112" value="Angular Project Training" style="shape=partialRectangle;html=1;whiteSpace=wrap;connectable=0;overflow=hidden;fillColor=none;top=0;left=0;bottom=0;right=0;pointerEvents=1;" parent="110" vertex="1">
                    <mxGeometry x="100" width="100" height="64" as="geometry">
                        <mxRectangle width="100" height="64" as="alternateBounds"/>
                    </mxGeometry>
                </mxCell>
                <mxCell id="113" value=".blabla..." style="shape=partialRectangle;html=1;whiteSpace=wrap;connectable=0;overflow=hidden;fillColor=none;top=0;left=0;bottom=0;right=0;pointerEvents=1;" parent="110" vertex="1">
                    <mxGeometry x="200" width="100" height="64" as="geometry">
                        <mxRectangle width="100" height="64" as="alternateBounds"/>
                    </mxGeometry>
                </mxCell>
                <mxCell id="114" value="{ }" style="shape=partialRectangle;html=1;whiteSpace=wrap;connectable=0;overflow=hidden;fillColor=none;top=0;left=0;bottom=0;right=0;pointerEvents=1;" parent="110" vertex="1">
                    <mxGeometry x="300" width="100" height="64" as="geometry">
                        <mxRectangle width="100" height="64" as="alternateBounds"/>
                    </mxGeometry>
                </mxCell>
                <mxCell id="115" value="1" style="shape=partialRectangle;html=1;whiteSpace=wrap;connectable=0;overflow=hidden;fillColor=#1ba1e2;top=0;left=0;bottom=0;right=0;pointerEvents=1;fontColor=#ffffff;strokeColor=#006EAF;" parent="110" vertex="1">
                    <mxGeometry x="400" width="117" height="64" as="geometry">
                        <mxRectangle width="117" height="64" as="alternateBounds"/>
                    </mxGeometry>
                </mxCell>
                <mxCell id="116" value="2" style="shape=partialRectangle;html=1;whiteSpace=wrap;connectable=0;overflow=hidden;fillColor=#60a917;top=0;left=0;bottom=0;right=0;pointerEvents=1;fontColor=#ffffff;strokeColor=#2D7600;" parent="110" vertex="1">
                    <mxGeometry x="517" width="83" height="64" as="geometry">
                        <mxRectangle width="83" height="64" as="alternateBounds"/>
                    </mxGeometry>
                </mxCell>
                <mxCell id="117" value="" style="shape=partialRectangle;collapsible=0;dropTarget=0;pointerEvents=0;fillColor=none;top=0;left=0;bottom=0;right=0;points=[[0,0.5],[1,0.5]];portConstraint=eastwest;" parent="102" vertex="1">
                    <mxGeometry y="127" width="600" height="63" as="geometry"/>
                </mxCell>
                <mxCell id="118" value="2" style="shape=partialRectangle;html=1;whiteSpace=wrap;connectable=0;overflow=hidden;fillColor=none;top=0;left=0;bottom=0;right=0;pointerEvents=1;" parent="117" vertex="1">
                    <mxGeometry width="100" height="63" as="geometry">
                        <mxRectangle width="100" height="63" as="alternateBounds"/>
                    </mxGeometry>
                </mxCell>
                <mxCell id="119" value=".." style="shape=partialRectangle;html=1;whiteSpace=wrap;connectable=0;overflow=hidden;fillColor=none;top=0;left=0;bottom=0;right=0;pointerEvents=1;" parent="117" vertex="1">
                    <mxGeometry x="100" width="100" height="63" as="geometry">
                        <mxRectangle width="100" height="63" as="alternateBounds"/>
                    </mxGeometry>
                </mxCell>
                <mxCell id="120" value=".." style="shape=partialRectangle;html=1;whiteSpace=wrap;connectable=0;overflow=hidden;fillColor=none;top=0;left=0;bottom=0;right=0;pointerEvents=1;" parent="117" vertex="1">
                    <mxGeometry x="200" width="100" height="63" as="geometry">
                        <mxRectangle width="100" height="63" as="alternateBounds"/>
                    </mxGeometry>
                </mxCell>
                <mxCell id="121" value=".." style="shape=partialRectangle;html=1;whiteSpace=wrap;connectable=0;overflow=hidden;fillColor=none;top=0;left=0;bottom=0;right=0;pointerEvents=1;" parent="117" vertex="1">
                    <mxGeometry x="300" width="100" height="63" as="geometry">
                        <mxRectangle width="100" height="63" as="alternateBounds"/>
                    </mxGeometry>
                </mxCell>
                <mxCell id="122" value=".." style="shape=partialRectangle;html=1;whiteSpace=wrap;connectable=0;overflow=hidden;fillColor=#1ba1e2;top=0;left=0;bottom=0;right=0;pointerEvents=1;fontColor=#ffffff;strokeColor=#006EAF;" parent="117" vertex="1">
                    <mxGeometry x="400" width="117" height="63" as="geometry">
                        <mxRectangle width="117" height="63" as="alternateBounds"/>
                    </mxGeometry>
                </mxCell>
                <mxCell id="123" value=".." style="shape=partialRectangle;html=1;whiteSpace=wrap;connectable=0;overflow=hidden;fillColor=#60a917;top=0;left=0;bottom=0;right=0;pointerEvents=1;fontColor=#ffffff;strokeColor=#2D7600;" parent="117" vertex="1">
                    <mxGeometry x="517" width="83" height="63" as="geometry">
                        <mxRectangle width="83" height="63" as="alternateBounds"/>
                    </mxGeometry>
                </mxCell>
                <mxCell id="126" value="" style="edgeStyle=elbowEdgeStyle;elbow=vertical;endArrow=classic;html=1;entryX=0.738;entryY=-0.036;entryDx=0;entryDy=0;entryPerimeter=0;exitX=1;exitY=0.5;exitDx=0;exitDy=0;" parent="1" source="60" target="103" edge="1">
                    <mxGeometry width="50" height="50" relative="1" as="geometry">
                        <mxPoint x="280" y="700" as="sourcePoint"/>
                        <mxPoint x="330" y="650" as="targetPoint"/>
                        <Array as="points">
                            <mxPoint x="370" y="670"/>
                        </Array>
                    </mxGeometry>
                </mxCell>
                <mxCell id="127" value="" style="edgeStyle=elbowEdgeStyle;elbow=vertical;endArrow=classic;html=1;exitX=1;exitY=0.5;exitDx=0;exitDy=0;entryX=0.919;entryY=0.024;entryDx=0;entryDy=0;entryPerimeter=0;" parent="1" source="70" target="103" edge="1">
                    <mxGeometry width="50" height="50" relative="1" as="geometry">
                        <mxPoint x="740" y="740" as="sourcePoint"/>
                        <mxPoint x="790" y="690" as="targetPoint"/>
                    </mxGeometry>
                </mxCell>
            </root>
        </mxGraphModel>
    </diagram>
</mxfile>